<?xml version="1.0" encoding="UTF-8" standalone="no"?>
<!-- Created with Inkscape (http://www.inkscape.org/) -->

<svg
   width="167.77484mm"
   height="47.354172mm"
   viewBox="0 0 167.77484 47.354172"
   version="1.1"
   id="svg1"
   xml:space="preserve"
   sodipodi:docname="logo.svg"
   inkscape:version="1.4.3 (0d15f75042, 2025-12-25)"
   xmlns:inkscape="http://www.inkscape.org/namespaces/inkscape"
   xmlns:sodipodi="http://sodipodi.sourceforge.net/DTD/sodipodi-0.dtd"
   xmlns="http://www.w3.org/2000/svg"
   xmlns:svg="http://www.w3.org/2000/svg"><sodipodi:namedview
     id="namedview1"
     pagecolor="#ffffff"
     bordercolor="#000000"
     borderopacity="0.25"
     inkscape:showpageshadow="2"
     inkscape:pageopacity="0.0"
     inkscape:pagecheckerboard="0"
     inkscape:deskcolor="#d1d1d1"
     inkscape:document-units="mm"
     inkscape:zoom="0.5986532"
     inkscape:cx="430.13217"
     inkscape:cy="84.356018"
     inkscape:window-width="1920"
     inkscape:window-height="1066"
     inkscape:window-x="0"
     inkscape:window-y="0"
     inkscape:window-maximized="0"
     inkscape:current-layer="layer1" /><defs
     id="defs1" /><g
     inkscape:label="Layer 1"
     inkscape:groupmode="layer"
     id="layer1"
     transform="translate(-34.729912,-173.77073)"><path
       style="opacity:1;fill:none;fill-opacity:1;fill-rule:evenodd;stroke:#000000;stroke-width:4;stroke-linecap:round;stroke-dasharray:none;stroke-opacity:1"
       d="m 36.821683,177.25448 c 25.47307,-0.23668 14.652426,23.30593 33.008675,22.73435 12.800194,-0.39857 28.685384,0.44535 37.835002,5.56434 10.15201,5.6798 22.03323,7.46976 36.39965,7.25263 11.98272,-0.1811 54.93975,-0.44196 54.93975,-0.44196"
       id="path11"
       sodipodi:nodetypes="csssc" /><path
       style="opacity:1;fill:none;fill-opacity:1;fill-rule:evenodd;stroke:#ffffff;stroke-width:7;stroke-linecap:round;stroke-dasharray:none;stroke-opacity:1"
       d="m 38.229912,199.54687 c 20.330358,-2.20982 28.083943,-22.57058 49.310425,-21.58692 29.595343,1.37147 36.165013,17.45781 56.524673,17.16745 18.73441,-0.26718 37.08795,-0.2058 54.93975,-0.26854"
       id="path15"
       sodipodi:nodetypes="cssc" /><path
       style="opacity:1;fill:none;fill-opacity:1;fill-rule:evenodd;stroke:#000000;stroke-width:4;stroke-linecap:round;stroke-dasharray:none;stroke-opacity:1"
       d="m 38.229912,199.54687 c 20.330358,-2.20982 28.078181,-20.73667 49.310425,-21.58692 24.282573,-0.9724 26.945793,17.61407 56.524673,17.16745 18.73418,-0.28287 37.08795,-0.2058 54.93975,-0.26854"
       id="path13"
       sodipodi:nodetypes="cssc" /><path
       style="opacity:1;fill:none;fill-opacity:1;fill-rule:evenodd;stroke:#ffffff;stroke-width:7;stroke-linecap:round;stroke-dasharray:none;stroke-opacity:1"
       d="m 39.801689,217.6249 c 24.087054,-1.76785 25.420554,-10.87737 31.091064,-19.11631 4.652352,-6.75961 18.975174,-15.75565 34.515727,-6.7321 13.7009,7.95536 7.9617,26.78916 -8.834681,24.68528 -10.62787,-1.33123 -16.05041,-14.87167 -6.681183,-22.46817 18.196304,-14.75343 43.000224,-16.52612 54.172394,-16.54461 16.35606,-0.0271 41.68082,-0.31608 54.93975,-0.0951"
       id="path14"
       sodipodi:nodetypes="csssssc" /><path
       style="opacity:1;fill:none;fill-opacity:1;fill-rule:evenodd;stroke:#000000;stroke-width:4;stroke-linecap:round;stroke-dasharray:none;stroke-opacity:1"
       d="m 39.801689,217.6249 c 24.087054,-1.76785 25.420554,-10.87737 31.091064,-19.11631 4.652352,-6.75961 18.975174,-15.75565 34.515727,-6.7321 13.7009,7.95536 7.9617,26.78916 -8.834681,24.68528 -10.62787,-1.33123 -16.05041,-14.87167 -6.681183,-22.46817 18.196304,-14.75343 43.000224,-16.52612 54.172394,-16.54461 16.35606,-0.0271 41.68082,-0.31608 54.93975,-0.0951"
       id="path12"
       sodipodi:nodetypes="csssssc" /></g></svg>
